<svg id="Layer_1" data-name="Layer 1" xmlns="http://www.w3.org/2000/svg" viewBox="0 0 1200 358.48"><defs><style>.cls-1{fill:#fff;}</style></defs><title>Artboard 1</title><path class="cls-1" d="M1090.14,72.82l-.29-.86a81,81,0,0,0-152.52,0l-.15.43-85,261.94h68.07l78.19-241a16.2,16.2,0,0,1,30.29,0l78.2,241H1175Z"/><path class="cls-1" d="M332.53,26.26H267.79V261a16.14,16.14,0,0,1-31.07,6.2l-53.94-193-.3-1.07-.37-1A80.89,80.89,0,0,0,25,99.1V334.33H89.74V99.1a16.14,16.14,0,0,1,31.07-6.2L175.05,287l.37,1.05a81,81,0,0,0,41,45.72l1.13.54a80.58,80.58,0,0,0,68.11,0c.39-.18.78-.35,1.16-.54a81.34,81.34,0,0,0,26.8-21A80.52,80.52,0,0,0,332.53,261Z"/><path class="cls-1" d="M848.87,176.43a92.82,92.82,0,0,0-67.18-28.74H700.76a28.35,28.35,0,1,1,0-56.69H858.58V26.26H700.71a93.09,93.09,0,0,0,0,186.17h80.93a28.31,28.31,0,1,1,0,56.62L618.22,269,554.68,72.84l-.29-.86A80.84,80.84,0,0,0,402,72l-.15.43L317,334.33h68.06l78.07-241a16.08,16.08,0,0,1,30.11,0l77.9,241H781.69c26.39,0,50.22-11.59,67.18-29.28a92.82,92.82,0,0,0,0-128.62Z"/></svg>